<svg xmlns="http://www.w3.org/2000/svg" viewBox="-18.20 -18.20 451.20 328.44" role="img" aria-label="OUNLP"><g fill="#2A3150"><g transform="translate(112.426,0.000) scale(0.794760)"><path d="M154.00 10.25Q134.00 12.75 109.50 19.75Q85.00 26.75 64.00 37.25Q43.00 47.75 30.88 57.88Q18.75 68.00 15.75 72.00Q12.75 76.00 10.25 82.00Q7.75 88.00 7.75 93.75Q7.75 99.50 10.25 105.00Q12.75 110.50 18.38 115.13Q24.00 119.75 29.75 122.25Q35.50 124.75 43.25 126.75Q51.00 128.75 60.50 129.75Q70.00 130.75 84.25 130.25Q98.50 129.75 125.63 125.13Q152.75 120.50 152.38 119.63Q152.00 118.75 127.50 119.25Q103.00 119.75 92.25 118.75Q81.50 117.75 72.00 115.75Q62.50 113.75 56.75 111.75Q51.00 109.75 46.00 106.75Q41.00 103.75 39.38 101.63Q37.75 99.50 37.25 95.25Q36.75 91.00 40.25 84.50Q43.75 78.00 53.88 68.88Q64.00 59.75 73.75 53.75Q83.50 47.75 100.00 40.75Q116.50 33.75 119.25 31.75Q122.00 29.75 138.00 25.25Q154.00 20.75 166.75 18.75Q179.50 16.75 182.75 15.25Q186.00 13.75 196.25 13.75Q206.50 13.75 205.50 12.75Q204.50 11.75 213.50 11.75Q222.50 11.75 218.50 10.75Q214.50 9.75 201.25 9.75Q188.00 9.75 194.75 8.75Q201.50 7.75 188.00 7.75Q174.50 7.75 174.25 7.75Q174.00 7.75 154.00 10.25Z M151.00 75.75Q133.50 77.75 129.75 78.75Q126.00 79.75 126.00 80.75Q126.00 81.75 147.50 81.25Q169.00 80.75 180.75 82.25Q192.50 83.75 201.50 87.25Q210.50 90.75 212.63 94.13Q214.75 97.50 214.25 99.50Q213.75 101.50 210.13 106.13Q206.50 110.75 196.50 117.75Q186.50 124.75 150.25 143.25Q114.00 161.75 104.88 167.88Q95.75 174.00 95.75 176.75Q95.75 179.50 97.38 180.63Q99.00 181.75 116.25 182.25Q133.50 182.75 137.25 183.25Q141.00 183.75 142.88 184.88Q144.75 186.00 144.75 187.25Q144.75 188.50 141.63 191.63Q138.50 194.75 121.75 206.25Q105.00 217.75 100.88 221.88Q96.75 226.00 97.13 226.63Q97.50 227.25 104.75 222.00Q112.00 216.75 122.25 211.75Q132.50 206.75 139.50 202.25Q146.50 197.75 150.63 192.63Q154.75 187.50 153.75 184.25Q152.75 181.00 148.88 178.88Q145.00 176.75 128.75 175.25Q112.50 173.75 143.50 160.25Q174.50 146.75 184.00 141.75Q193.50 136.75 205.50 128.75Q217.50 120.75 223.63 113.63Q229.75 106.50 230.75 103.50Q231.75 100.50 231.25 95.75Q230.75 91.00 225.63 85.88Q220.50 80.75 209.75 77.75Q199.00 74.75 184.00 74.25Q169.00 73.75 168.75 73.75Q168.50 73.75 151.00 75.75Z M119.00 81.75Q115.00 82.75 114.63 83.63Q114.25 84.50 118.63 83.63Q123.00 82.75 123.13 81.88Q123.25 81.00 123.13 80.88Q123.00 80.75 119.00 81.75Z"/></g><g transform="translate(0.000,292.040)"><path transform="translate(0.000,0) scale(0.100000,-0.100000)" d="M102 350Q102 438 139.5 506.5Q177 575 242.5 614.5Q308 654 392 654Q476 654 541.5 614.5Q607 575 644.0 506.5Q681 438 681 350Q681 263 644.0 194.0Q607 125 541.5 85.5Q476 46 392 46Q308 46 242.5 85.5Q177 125 139.5 194.0Q102 263 102 350ZM44 350Q44 273 70.0 207.5Q96 142 143.0 93.5Q190 45 253.5 18.0Q317 -9 392 -9Q467 -9 530.5 18.0Q594 45 641.0 93.5Q688 142 714.0 207.5Q740 273 740 350Q740 427 714.0 492.5Q688 558 641.0 606.5Q594 655 530.5 682.0Q467 709 392 709Q317 709 253.5 682.0Q190 655 143.0 606.5Q96 558 70.0 492.5Q44 427 44 350Z"/><path transform="translate(104.400,0) scale(0.100000,-0.100000)" d="M79 700V226Q79 174 94.0 130.5Q109 87 138.0 56.0Q167 25 208.5 7.5Q250 -10 303 -10Q356 -10 397.5 7.5Q439 25 468.0 56.0Q497 87 512.0 130.5Q527 174 527 226V700H472V226Q472 142 428.0 92.0Q384 42 303 42Q222 42 178.0 92.0Q134 142 134 226V700Z"/><path transform="translate(191.000,0) scale(0.100000,-0.100000)" d="M616 700V114L84 727V0H139V584L671 -27V700Z"/><path transform="translate(292.500,0) scale(0.100000,-0.100000)" d="M84 700V0H428V52H139V700Z"/><path transform="translate(362.700,0) scale(0.100000,-0.100000)" d="M84 700V0H139V286H248Q314 286 365.5 310.5Q417 335 447.0 382.0Q477 429 477 493Q477 558 447.0 604.0Q417 650 365.5 675.0Q314 700 248 700ZM139 338V648H248Q325 648 373.0 608.5Q421 569 421 493Q421 418 373.0 378.0Q325 338 248 338Z"/></g></g></svg>