<svg xmlns="http://www.w3.org/2000/svg" viewBox="-11.11 -81.11 590.78 133.35" role="img" aria-label="OUNLP"><g fill="#C9A46A"><g transform="translate(0.000,-70.000) scale(0.485257)"><path d="M154.00 10.25Q134.00 12.75 109.50 19.75Q85.00 26.75 64.00 37.25Q43.00 47.75 30.88 57.88Q18.75 68.00 15.75 72.00Q12.75 76.00 10.25 82.00Q7.75 88.00 7.75 93.75Q7.75 99.50 10.25 105.00Q12.75 110.50 18.38 115.13Q24.00 119.75 29.75 122.25Q35.50 124.75 43.25 126.75Q51.00 128.75 60.50 129.75Q70.00 130.75 84.25 130.25Q98.50 129.75 125.63 125.13Q152.75 120.50 152.38 119.63Q152.00 118.75 127.50 119.25Q103.00 119.75 92.25 118.75Q81.50 117.75 72.00 115.75Q62.50 113.75 56.75 111.75Q51.00 109.75 46.00 106.75Q41.00 103.75 39.38 101.63Q37.75 99.50 37.25 95.25Q36.75 91.00 40.25 84.50Q43.75 78.00 53.88 68.88Q64.00 59.75 73.75 53.75Q83.50 47.75 100.00 40.75Q116.50 33.75 119.25 31.75Q122.00 29.75 138.00 25.25Q154.00 20.75 166.75 18.75Q179.50 16.75 182.75 15.25Q186.00 13.75 196.25 13.75Q206.50 13.75 205.50 12.75Q204.50 11.75 213.50 11.75Q222.50 11.75 218.50 10.75Q214.50 9.75 201.25 9.75Q188.00 9.75 194.75 8.75Q201.50 7.75 188.00 7.75Q174.50 7.75 174.25 7.75Q174.00 7.75 154.00 10.25Z M151.00 75.75Q133.50 77.75 129.75 78.75Q126.00 79.75 126.00 80.75Q126.00 81.75 147.50 81.25Q169.00 80.75 180.75 82.25Q192.50 83.75 201.50 87.25Q210.50 90.75 212.63 94.13Q214.75 97.50 214.25 99.50Q213.75 101.50 210.13 106.13Q206.50 110.75 196.50 117.75Q186.50 124.75 150.25 143.25Q114.00 161.75 104.88 167.88Q95.75 174.00 95.75 176.75Q95.75 179.50 97.38 180.63Q99.00 181.75 116.25 182.25Q133.50 182.75 137.25 183.25Q141.00 183.75 142.88 184.88Q144.75 186.00 144.75 187.25Q144.75 188.50 141.63 191.63Q138.50 194.75 121.75 206.25Q105.00 217.75 100.88 221.88Q96.75 226.00 97.13 226.63Q97.50 227.25 104.75 222.00Q112.00 216.75 122.25 211.75Q132.50 206.75 139.50 202.25Q146.50 197.75 150.63 192.63Q154.75 187.50 153.75 184.25Q152.75 181.00 148.88 178.88Q145.00 176.75 128.75 175.25Q112.50 173.75 143.50 160.25Q174.50 146.75 184.00 141.75Q193.50 136.75 205.50 128.75Q217.50 120.75 223.63 113.63Q229.75 106.50 230.75 103.50Q231.75 100.50 231.25 95.75Q230.75 91.00 225.63 85.88Q220.50 80.75 209.75 77.75Q199.00 74.75 184.00 74.25Q169.00 73.75 168.75 73.75Q168.50 73.75 151.00 75.75Z M119.00 81.75Q115.00 82.75 114.63 83.63Q114.25 84.50 118.63 83.63Q123.00 82.75 123.13 81.88Q123.25 81.00 123.13 80.88Q123.00 80.75 119.00 81.75Z"/></g><g transform="translate(153.759,0)"><path transform="translate(0.000,0) scale(0.100000,-0.100000)" d="M102 350Q102 438 139.5 506.5Q177 575 242.5 614.5Q308 654 392 654Q476 654 541.5 614.5Q607 575 644.0 506.5Q681 438 681 350Q681 263 644.0 194.0Q607 125 541.5 85.5Q476 46 392 46Q308 46 242.5 85.5Q177 125 139.5 194.0Q102 263 102 350ZM44 350Q44 273 70.0 207.5Q96 142 143.0 93.5Q190 45 253.5 18.0Q317 -9 392 -9Q467 -9 530.5 18.0Q594 45 641.0 93.5Q688 142 714.0 207.5Q740 273 740 350Q740 427 714.0 492.5Q688 558 641.0 606.5Q594 655 530.5 682.0Q467 709 392 709Q317 709 253.5 682.0Q190 655 143.0 606.5Q96 558 70.0 492.5Q44 427 44 350Z"/><path transform="translate(104.400,0) scale(0.100000,-0.100000)" d="M79 700V226Q79 174 94.0 130.5Q109 87 138.0 56.0Q167 25 208.5 7.5Q250 -10 303 -10Q356 -10 397.5 7.5Q439 25 468.0 56.0Q497 87 512.0 130.5Q527 174 527 226V700H472V226Q472 142 428.0 92.0Q384 42 303 42Q222 42 178.0 92.0Q134 142 134 226V700Z"/><path transform="translate(191.000,0) scale(0.100000,-0.100000)" d="M616 700V114L84 727V0H139V584L671 -27V700Z"/><path transform="translate(292.500,0) scale(0.100000,-0.100000)" d="M84 700V0H428V52H139V700Z"/><path transform="translate(362.700,0) scale(0.100000,-0.100000)" d="M84 700V0H139V286H248Q314 286 365.5 310.5Q417 335 447.0 382.0Q477 429 477 493Q477 558 447.0 604.0Q417 650 365.5 675.0Q314 700 248 700ZM139 338V648H248Q325 648 373.0 608.5Q421 569 421 493Q421 418 373.0 378.0Q325 338 248 338Z"/></g></g><g fill="#C9A46A"><g transform="translate(156.870,41.124)"><g transform="scale(0.167484)"><path transform="translate(0.000,0) scale(0.100000,-0.100000)" d="M130 350Q130 429 164.5 491.0Q199 553 259.0 589.0Q319 625 395 625Q472 625 531.5 589.0Q591 553 625.5 491.0Q660 429 660 350Q660 271 625.5 209.0Q591 147 531.5 111.0Q472 75 395 75Q319 75 259.0 111.0Q199 147 164.5 209.0Q130 271 130 350ZM40 350Q40 274 66.5 208.0Q93 142 141.0 93.5Q189 45 254.0 17.5Q319 -10 395 -10Q472 -10 536.5 17.5Q601 45 649.0 93.5Q697 142 723.5 208.0Q750 274 750 350Q750 427 723.5 492.5Q697 558 649.0 606.5Q601 655 536.5 682.5Q472 710 395 710Q319 710 254.0 682.5Q189 655 141.0 606.5Q93 558 66.5 492.5Q40 427 40 350Z"/><path transform="translate(93.000,0) scale(0.100000,-0.100000)" d="M75 700V230Q75 178 91.5 134.0Q108 90 139.5 58.0Q171 26 215.0 8.0Q259 -10 313 -10Q367 -10 411.0 8.0Q455 26 486.5 58.0Q518 90 534.5 134.0Q551 178 551 230V700H466V230Q466 158 427.0 114.0Q388 70 313 70Q238 70 199.0 114.0Q160 158 160 230V700Z"/><path transform="translate(213.600,0) scale(0.100000,-0.100000)" d="M610 700V179L80 735V0H165V521L695 -35V700Z"/><path transform="translate(305.100,0) scale(0.100000,-0.100000)" d="M471 210 560 0H655L330 735L5 0H100L189 210ZM330 542 437 290H223Z"/><path transform="translate(385.100,0) scale(0.100000,-0.100000)" d="M10 620H190V0H275V620H455V700H10Z"/><path transform="translate(445.600,0) scale(0.100000,-0.100000)" d="M75 700V230Q75 178 91.5 134.0Q108 90 139.5 58.0Q171 26 215.0 8.0Q259 -10 313 -10Q367 -10 411.0 8.0Q455 26 486.5 58.0Q518 90 534.5 134.0Q551 178 551 230V700H466V230Q466 158 427.0 114.0Q388 70 313 70Q238 70 199.0 114.0Q160 158 160 230V700Z"/><path transform="translate(522.200,0) scale(0.100000,-0.100000)" d="M80 700V0H165V280H250L445 0H550L341 288Q368 294 392 306Q445 331 476.5 378.5Q508 426 508 490Q508 555 476.5 602.0Q445 649 391.5 674.5Q338 700 270 700ZM165 355V625H270Q315 625 349.5 609.0Q384 593 403.5 563.0Q423 533 423.0 490.0Q423 447 403.5 417.0Q384 387 349.5 371.0Q315 355 270 355Z"/><path transform="translate(592.200,0) scale(0.100000,-0.100000)" d="M471 210 560 0H655L330 735L5 0H100L189 210ZM330 542 437 290H223Z"/><path transform="translate(672.200,0) scale(0.100000,-0.100000)" d="M80 700V0H440V80H165V700Z"/><path transform="translate(775.200,0) scale(0.100000,-0.100000)" d="M80 700V0H440V80H165V700Z"/><path transform="translate(834.200,0) scale(0.100000,-0.100000)" d="M471 210 560 0H655L330 735L5 0H100L189 210ZM330 542 437 290H223Z"/><path transform="translate(914.200,0) scale(0.100000,-0.100000)" d="M610 700V179L80 735V0H165V521L695 -35V700Z"/><path transform="translate(1005.700,0) scale(0.100000,-0.100000)" d="M405 275H638Q629 234 609.5 198.0Q590 162 560.0 134.0Q530 106 488.5 90.5Q447 75 395 75Q321 75 261.0 110.0Q201 145 165.5 207.0Q130 269 130 350Q130 432 165.5 493.5Q201 555 261.0 590.0Q321 625 395 625Q475 625 534.0 593.5Q593 562 626 506L686 561Q656 610 612.5 643.0Q569 676 514.5 693.0Q460 710 395 710Q319 710 254.0 683.5Q189 657 141.0 608.5Q93 560 66.5 494.0Q40 428 40 350Q40 272 66.5 206.0Q93 140 141.0 91.5Q189 43 254.0 16.5Q319 -10 395 -10Q475 -10 537.5 19.5Q600 49 643.0 100.0Q686 151 708.0 216.5Q730 282 730 355H405Z"/><path transform="translate(1097.200,0) scale(0.100000,-0.100000)" d="M75 700V230Q75 178 91.5 134.0Q108 90 139.5 58.0Q171 26 215.0 8.0Q259 -10 313 -10Q367 -10 411.0 8.0Q455 26 486.5 58.0Q518 90 534.5 134.0Q551 178 551 230V700H466V230Q466 158 427.0 114.0Q388 70 313 70Q238 70 199.0 114.0Q160 158 160 230V700Z"/><path transform="translate(1173.800,0) scale(0.100000,-0.100000)" d="M471 210 560 0H655L330 735L5 0H100L189 210ZM330 542 437 290H223Z"/><path transform="translate(1253.800,0) scale(0.100000,-0.100000)" d="M405 275H638Q629 234 609.5 198.0Q590 162 560.0 134.0Q530 106 488.5 90.5Q447 75 395 75Q321 75 261.0 110.0Q201 145 165.5 207.0Q130 269 130 350Q130 432 165.5 493.5Q201 555 261.0 590.0Q321 625 395 625Q475 625 534.0 593.5Q593 562 626 506L686 561Q656 610 612.5 643.0Q569 676 514.5 693.0Q460 710 395 710Q319 710 254.0 683.5Q189 657 141.0 608.5Q93 560 66.5 494.0Q40 428 40 350Q40 272 66.5 206.0Q93 140 141.0 91.5Q189 43 254.0 16.5Q319 -10 395 -10Q475 -10 537.5 19.5Q600 49 643.0 100.0Q686 151 708.0 216.5Q730 282 730 355H405Z"/><path transform="translate(1345.300,0) scale(0.100000,-0.100000)" d="M80 700V0H480V80H165V340H460V420H165V620H480V700Z"/><path transform="translate(1458.300,0) scale(0.100000,-0.100000)" d="M80 700V0H165V280H270Q338 280 391.5 305.5Q445 331 476.5 378.5Q508 426 508 490Q508 555 476.5 602.0Q445 649 391.5 674.5Q338 700 270 700ZM165 360V620H270Q338 620 380.5 587.5Q423 555 423 490Q423 426 380.5 393.0Q338 360 270 360Z"/><path transform="translate(1527.100,0) scale(0.100000,-0.100000)" d="M80 700V0H165V280H250L445 0H550L341 288Q368 294 392 306Q445 331 476.5 378.5Q508 426 508 490Q508 555 476.5 602.0Q445 649 391.5 674.5Q338 700 270 700ZM165 355V625H270Q315 625 349.5 609.0Q384 593 403.5 563.0Q423 533 423.0 490.0Q423 447 403.5 417.0Q384 387 349.5 371.0Q315 355 270 355Z"/><path transform="translate(1597.100,0) scale(0.100000,-0.100000)" d="M130 350Q130 429 164.5 491.0Q199 553 259.0 589.0Q319 625 395 625Q472 625 531.5 589.0Q591 553 625.5 491.0Q660 429 660 350Q660 271 625.5 209.0Q591 147 531.5 111.0Q472 75 395 75Q319 75 259.0 111.0Q199 147 164.5 209.0Q130 271 130 350ZM40 350Q40 274 66.5 208.0Q93 142 141.0 93.5Q189 45 254.0 17.5Q319 -10 395 -10Q472 -10 536.5 17.5Q601 45 649.0 93.5Q697 142 723.5 208.0Q750 274 750 350Q750 427 723.5 492.5Q697 558 649.0 606.5Q601 655 536.5 682.5Q472 710 395 710Q319 710 254.0 682.5Q189 655 141.0 606.5Q93 558 66.5 492.5Q40 427 40 350Z"/><path transform="translate(1690.100,0) scale(0.100000,-0.100000)" d="M130 350Q130 432 166.5 493.5Q203 555 262.0 590.0Q321 625 390 625Q440 625 481.5 612.0Q523 599 557.0 575.5Q591 552 615 521V633Q571 672 519.0 691.0Q467 710 390 710Q317 710 253.5 683.5Q190 657 142.0 608.5Q94 560 67.0 494.0Q40 428 40 350Q40 272 67.0 206.0Q94 140 142.0 91.5Q190 43 253.5 16.5Q317 -10 390 -10Q467 -10 519.0 9.0Q571 28 615 67V179Q591 148 557.0 124.5Q523 101 481.5 88.0Q440 75 390 75Q321 75 262.0 110.0Q203 145 166.5 207.0Q130 269 130 350Z"/><path transform="translate(1772.600,0) scale(0.100000,-0.100000)" d="M80 700V0H480V80H165V340H460V420H165V620H480V700Z"/><path transform="translate(1841.600,0) scale(0.100000,-0.100000)" d="M106 212 38 166Q61 120 97.5 79.5Q134 39 182.5 14.5Q231 -10 288 -10Q330 -10 368.5 4.0Q407 18 437.5 44.0Q468 70 485.5 107.0Q503 144 503 190Q503 238 486.0 272.5Q469 307 442.5 331.5Q416 356 385.0 372.0Q354 388 326 398Q265 419 229.5 440.5Q194 462 179.0 486.5Q164 511 164 540Q164 574 190.0 601.5Q216 629 273 629Q314 629 342.5 613.0Q371 597 391.0 572.0Q411 547 424 521L497 563Q480 600 450.0 633.5Q420 667 377.5 688.5Q335 710 278 710Q219 710 173.0 686.5Q127 663 101.0 622.0Q75 581 75 529Q75 481 93.5 448.0Q112 415 141.0 392.5Q170 370 202.0 355.5Q234 341 260 332Q300 318 335.5 300.5Q371 283 393.0 255.0Q415 227 415 180Q415 132 381.0 101.0Q347 70 291 70Q249 70 216.0 88.0Q183 106 156.5 138.0Q130 170 106 212Z"/><path transform="translate(1910.400,0) scale(0.100000,-0.100000)" d="M106 212 38 166Q61 120 97.5 79.5Q134 39 182.5 14.5Q231 -10 288 -10Q330 -10 368.5 4.0Q407 18 437.5 44.0Q468 70 485.5 107.0Q503 144 503 190Q503 238 486.0 272.5Q469 307 442.5 331.5Q416 356 385.0 372.0Q354 388 326 398Q265 419 229.5 440.5Q194 462 179.0 486.5Q164 511 164 540Q164 574 190.0 601.5Q216 629 273 629Q314 629 342.5 613.0Q371 597 391.0 572.0Q411 547 424 521L497 563Q480 600 450.0 633.5Q420 667 377.5 688.5Q335 710 278 710Q219 710 173.0 686.5Q127 663 101.0 622.0Q75 581 75 529Q75 481 93.5 448.0Q112 415 141.0 392.5Q170 370 202.0 355.5Q234 341 260 332Q300 318 335.5 300.5Q371 283 393.0 255.0Q415 227 415 180Q415 132 381.0 101.0Q347 70 291 70Q249 70 216.0 88.0Q183 106 156.5 138.0Q130 170 106 212Z"/><path transform="translate(1979.200,0) scale(0.100000,-0.100000)" d="M80 700V0H165V700Z"/><path transform="translate(2017.700,0) scale(0.100000,-0.100000)" d="M610 700V179L80 735V0H165V521L695 -35V700Z"/><path transform="translate(2109.200,0) scale(0.100000,-0.100000)" d="M405 275H638Q629 234 609.5 198.0Q590 162 560.0 134.0Q530 106 488.5 90.5Q447 75 395 75Q321 75 261.0 110.0Q201 145 165.5 207.0Q130 269 130 350Q130 432 165.5 493.5Q201 555 261.0 590.0Q321 625 395 625Q475 625 534.0 593.5Q593 562 626 506L686 561Q656 610 612.5 643.0Q569 676 514.5 693.0Q460 710 395 710Q319 710 254.0 683.5Q189 657 141.0 608.5Q93 560 66.5 494.0Q40 428 40 350Q40 272 66.5 206.0Q93 140 141.0 91.5Q189 43 254.0 16.5Q319 -10 395 -10Q475 -10 537.5 19.5Q600 49 643.0 100.0Q686 151 708.0 216.5Q730 282 730 355H405Z"/><path transform="translate(2244.700,0) scale(0.100000,-0.100000)" d="M80 700V0H440V80H165V700Z"/><path transform="translate(2303.700,0) scale(0.100000,-0.100000)" d="M471 210 560 0H655L330 735L5 0H100L189 210ZM330 542 437 290H223Z"/><path transform="translate(2383.700,0) scale(0.100000,-0.100000)" d="M352 382Q361 385 370 388Q416 406 442.0 441.0Q468 476 468 525Q468 585 442.0 623.5Q416 662 369.5 681.0Q323 700 260 700H80V0H270Q338 0 391.5 22.5Q445 45 476.5 90.5Q508 136 508 205Q508 253 490.0 288.0Q472 323 439.5 345.5Q407 368 364 379Q358 381 352 382ZM165 343H270Q304 343 332.0 334.5Q360 326 380.5 309.0Q401 292 412.0 267.0Q423 242 423 210Q423 167 403.5 137.0Q384 107 349.5 91.0Q315 75 270 75H165ZM165 417V625H260Q313 625 348.0 597.5Q383 570 383 520Q383 487 367.0 464.0Q351 441 323.0 429.0Q295 417 260 417Z"/></g></g></g></svg>