<svg xmlns="http://www.w3.org/2000/svg" viewBox="0 0 100 100">
  <defs><linearGradient id="g" x1="0" y1="0" x2="1" y2="1"><stop offset="0" stop-color="#2563eb"/><stop offset="1" stop-color="#0ea5e9"/></linearGradient></defs>
  <rect width="100" height="100" rx="24" fill="url(#g)"/>
  <path d="M26 26 h48 a10 10 0 0 1 10 10 v22 a10 10 0 0 1 -10 10 h-27 l-15 13 v-13 h-6 a10 10 0 0 1 -10 -10 v-22 a10 10 0 0 1 10 -10 z" fill="#ffffff"/>
  <g fill="none" stroke="#2563eb" stroke-width="3.6" stroke-linecap="round">
    <path d="M34 54 C 34 33, 66 33, 66 54"/>
    <path d="M34 54 C 34 44, 50 44, 50 54"/>
  </g>
  <g fill="#2563eb"><circle cx="34" cy="54" r="5"/><circle cx="50" cy="54" r="5"/><circle cx="66" cy="54" r="5"/></g>
</svg>
