<svg xmlns="http://www.w3.org/2000/svg" viewBox="0 0 100 100"><defs><linearGradient id="g" x1="0" y1="0" x2="1" y2="1"><stop offset="0" stop-color="#2563eb"/><stop offset="1" stop-color="#0ea5e9"/></linearGradient></defs><rect width="100" height="100" rx="24" fill="url(#g)"/>
<path d="M26 26 h14 a5 5 0 0 1 10 0 h22 a10 10 0 0 1 10 10 v8 a5 5 0 0 1 0 10 v4 a10 10 0 0 1 -10 10 h-27 l-15 13 v-13 h-6 a10 10 0 0 1 -10 -10 v-22 a10 10 0 0 1 10 -10 z" fill="#fff"/>
<g fill="none" stroke="#2563eb" stroke-width="3.4" stroke-linecap="round"><path d="M34 55 C 34 35, 66 35, 66 55"/><path d="M34 55 C 34 45, 50 45, 50 55"/></g>
<g fill="#2563eb"><circle cx="34" cy="55" r="4.8"/><circle cx="50" cy="55" r="4.8"/><circle cx="66" cy="55" r="4.8"/></g></svg>
